<?xml version="1.0" encoding="utf-8"?><svg xmlns="http://www.w3.org/2000/svg" xmlns:xlink="http://www.w3.org/1999/xlink"><symbol fill="#4b4b4b" viewBox="0 0 1792 1792" id="download"><path d="M1344 1344q0-26-19-45t-45-19-45 19-19 45 19 45 45 19 45-19 19-45zm256 0q0-26-19-45t-45-19-45 19-19 45 19 45 45 19 45-19 19-45zm128-224v320q0 40-28 68t-68 28H160q-40 0-68-28t-28-68v-320q0-40 28-68t68-28h465l135 136q58 56 136 56t136-56l136-136h464q40 0 68 28t28 68zm-325-569q17 41-14 70l-448 448q-18 19-45 19t-45-19L403 621q-31-29-14-70 17-39 59-39h256V64q0-26 19-45t45-19h256q26 0 45 19t19 45v448h256q42 0 59 39z"/></symbol><symbol viewBox="0 0 512 512" id="facebook"><path d="M348.49 35.511H163.512c-70.692 0-128 57.307-128 128v184.978c0 70.693 57.308 128 128 128h97.091v-163.96h-55.542v-69.428h55.542v-41.657c0-57.194 32.284-97.199 83.313-97.199h55.542v69.428h-27.771c-27.743 0-41.657 13.885-41.657 41.657v27.771h69.428l-13.886 69.428H330.03v163.96h18.459c70.693 0 128-57.307 128-128V163.511c.001-70.692-57.306-128-127.999-128z"/></symbol><symbol viewBox="0 0 23 23" id="instagram"><title>Layer 1</title><path d="M18.466.097H4.476A4.405 4.405 0 0 0 .07 4.492v13.952c0 2.423 1.977 4.394 4.407 4.394h13.99c2.43 0 4.407-1.971 4.407-4.395V4.491c0-2.423-1.977-4.394-4.407-4.394zm1.264 2.62l.504-.001V6.57l-3.852.013-.014-3.854 3.362-.011zM8.216 9.134c.73-1.008 1.916-1.669 3.255-1.669s2.524.661 3.254 1.67a3.97 3.97 0 0 1 .76 2.333 4.014 4.014 0 0 1-4.015 4.002 4.012 4.012 0 0 1-4.013-4.002c0-.871.284-1.676.76-2.334zm12.435 9.31c0 1.202-.98 2.179-2.185 2.179H4.476a2.184 2.184 0 0 1-2.185-2.18V9.134h3.404a6.17 6.17 0 0 0-.46 2.334c0 3.428 2.797 6.219 6.236 6.219 3.438 0 6.235-2.79 6.235-6.219a6.17 6.17 0 0 0-.46-2.334h3.405v9.31z"/></symbol><symbol viewBox="0 0 24 24" id="like"><path d="M7 3c-1.536 0-3.078.5-4.25 1.7-2.343 2.4-2.279 6.1 0 8.5L12 23l9.25-9.8c2.279-2.4 2.343-6.1 0-8.5-2.343-2.3-6.157-2.3-8.5 0l-.75.8-.75-.8C10.078 3.5 8.535 3 7 3z"/></symbol><symbol viewBox="0 0 24 24" fill="#2aaa07" id="plus"><path d="M18 10h-4V6a2 2 0 0 0-4 0l.071 4H6a2 2 0 0 0 0 4l4.071-.071L10 18a2 2 0 0 0 4 0v-4.071L18 14a2 2 0 0 0 0-4z"/></symbol><symbol viewBox="0 0 139 139" id="search"><path d="M127.558 111.961L100.249 84.65a47.75 47.75 0 0 0 7.333-25.488c0-26.509-21.49-47.996-47.998-47.996S11.588 32.653 11.588 59.162c0 26.51 21.487 47.995 47.996 47.995a47.776 47.776 0 0 0 27.414-8.605l26.984 26.986a9.574 9.574 0 0 0 6.788 2.806 9.58 9.58 0 0 0 6.791-2.806 9.602 9.602 0 0 0-.003-13.577zM59.584 91.607c-17.917 0-32.443-14.525-32.443-32.443S41.667 26.72 59.584 26.72c17.918 0 32.443 14.526 32.443 32.444S77.502 91.607 59.584 91.607z"/></symbol><symbol viewBox="0 0 26 23" id="twitter"><title>Layer 1</title><path d="M25.837 2.979a9.815 9.815 0 0 1-3.006.89c1.081-.7 1.91-1.808 2.301-3.13a10.017 10.017 0 0 1-3.324 1.374c-.954-1.1-2.315-1.787-3.82-1.787-2.89 0-5.234 2.533-5.234 5.657 0 .443.046.875.136 1.29-4.35-.238-8.208-2.49-10.79-5.912a5.98 5.98 0 0 0-.708 2.844c0 1.963.924 3.695 2.328 4.709a4.926 4.926 0 0 1-2.37-.708l-.001.071c0 2.74 1.804 5.027 4.199 5.547a4.894 4.894 0 0 1-2.364.097c.666 2.247 2.6 3.883 4.89 3.929-1.792 1.517-4.049 2.422-6.501 2.422a9.8 9.8 0 0 1-1.249-.08c2.317 1.606 5.068 2.542 8.024 2.542 9.628 0 14.892-8.62 14.892-16.096 0-.245-.004-.49-.014-.733a11.117 11.117 0 0 0 2.611-2.927z"/></symbol><symbol viewBox="0 0 50 50" id="user"><path fill="none" d="M0 0h50v50H0z"/><path d="M30.933 32.528c-.146-1.612-.09-2.737-.09-4.21.73-.383 2.038-2.825 2.259-4.888.574-.047 1.479-.607 1.744-2.818.143-1.187-.425-1.855-.771-2.065.934-2.809 2.874-11.499-3.588-12.397-.665-1.168-2.368-1.759-4.581-1.759-8.854.163-9.922 6.686-7.981 14.156-.345.21-.913.878-.771 2.065.266 2.211 1.17 2.771 1.744 2.818.22 2.062 1.58 4.505 2.312 4.888 0 1.473.055 2.598-.091 4.21C19.367 37.238 7.546 35.916 7 45h38c-.545-9.084-12.315-7.762-14.067-12.472z"/></symbol><symbol viewBox="0 0 30 17" id="vk"><title>Layer 1</title><path clip-rule="evenodd" d="M15.93 16.941c.983 0 .983-1.348.983-1.871 0-.936.983-1.871 1.966-1.871s2.67 1.604 3.932 2.806c.984.936.984.936 1.967.936h2.95s1.966-.071 1.966-1.871c0-.585-.674-1.577-2.95-3.743-1.966-1.87-2.975-.904 0-4.678 1.812-2.297 3.13-4.38 2.904-4.98-.216-.573-5.256-1.487-5.853-.633-1.967 2.807-2.327 3.494-2.95 4.678-.983 1.871-1.08 2.807-1.966 2.807-.894 0-.983-1.816-.983-2.807 0-3.093.47-5.28-.983-5.614h-2.95c-1.583 0-2.95.936-2.95.936s-1.22.905-.983.935c.293.038 1.967-.387 1.967.936v1.871s.009 3.743-.983 3.743c-.984 0-2.95-3.743-4.916-6.55-.772-1.1-.983-.935-1.967-.935-1.054 0-1.965.04-2.95.04C.2 1.075.074 1.67.2 1.97c1.965 4.68 3.378 7.617 7.114 11.318 3.426 3.396 5.715 3.576 7.632 3.653.492.02 0 0 .983 0z" fill-rule="evenodd"/></symbol></svg>