<svg width="23" height="23" xmlns="http://www.w3.org/2000/svg" xmlns:svg="http://www.w3.org/2000/svg">
 <g>
  <title>Layer 1</title>
  <g id="svg_5" transform="matrix(0.39922037689439427,0,0,0.4115293731011967,205.2293252940806,137.66320015447045) ">
   <path  d="m-467.82079,-334.28011l-35.04218,0c-6.08693,0 -11.03897,4.78964 -11.03897,10.67832l0,11.28023l0,22.62177c0,5.88868 4.95204,10.67832 11.03897,10.67832l35.04333,0c6.08693,0 11.03781,-4.78964 11.03781,-10.67832l0,-22.62289l0,-11.28023c-0.00115,-5.88868 -4.95204,-10.67721 -11.03897,-10.67721l0.00001,0.00001zm3.16617,6.36798l1.26278,-0.00446l0,1.21608l0,8.1503l-9.64945,0.0301l-0.03341,-9.36527l8.42008,-0.02675zm-28.84003,15.58946c1.82965,-2.44888 4.79765,-4.05509 8.15277,-4.05509s6.32312,1.60621 8.15047,4.05509c1.19019,1.5984 1.90339,3.5535 1.90339,5.67133c0,5.36257 -4.51421,9.7253 -10.05501,9.7253c-5.54425,0 -10.05386,-4.36273 -10.05386,-9.7253c0.00115,-2.11783 0.71204,-4.07292 1.90224,-5.67133zm31.14668,22.62177c0,2.92149 -2.45528,5.29458 -5.47282,5.29458l-35.04218,0c-3.01869,0 -5.47397,-2.37308 -5.47397,-5.29458l0,-22.62177l8.52608,0c-0.73624,1.75223 -1.14987,3.66608 -1.14987,5.67133c0,8.32976 7.00521,15.11128 15.61885,15.11128c8.61249,0 15.6177,-6.78152 15.6177,-15.11128c0,-2.00525 -0.41593,-3.9191 -1.15217,-5.67133l8.52838,0l0,22.62177z" id="svg_3"/>
  </g>
  <g id="svg_4"/>
 </g>
</svg>